<svg xmlns="http://www.w3.org/2000/svg" width="296pt" height="288pt" viewBox="0 0 296 288" version="1.1"><style>.style0{fill:	#ffffff;}.style1{fill:	#000000;}</style><path d=" M 0 0 L 296 0 L 296 288 L 0 288 L 0 0 Z" class="style0"/><path d=" M 141.5 12.8 C 158.2 12.1 175.1 14.5 191 19.8 C 217.3 29.4 240.2 48 255.4 71.6 C 268.3 91.5 274.5 115.3 275.2 138.9 C 275.1 163.1 268.8 187.4 256 208 C 242.5 230.1 221.8 247.8 197.9 257.7 C 176.2 266.5 152.2 270.4 129 266.6 C 116.2 264.8 103.8 261 92.2 255.7 C 67.1 243.7 46.3 223.1 33.5 198.6 C 12.1 156.3 15.7 101.7 45 64 C 57.5 47.8 73.3 33.8 91.9 25 C 107.2 17.1 124.5 13.8 141.5 12.8 Z" class="style1"/><path d=" M 91.4 39.2 C 112.1 27.4 136.4 23.2 159.9 25.5 C 184.9 27.6 208.7 39 226.7 56.3 C 246.2 73.9 258.1 98.8 262.1 124.6 C 257.1 125.2 252.1 126.4 247.6 128.5 C 239.8 131.9 233.4 137.7 226.8 142.8 C 223.6 140.8 220.7 138.3 217.4 136.4 C 217.8 136.2 218.6 135.8 218.9 135.7 C 217.2 131.8 215.7 127.8 214 124 C 214.9 124.3 216.8 125.2 217.7 125.6 C 216.4 122.6 215.1 119.6 213.8 116.7 C 214.6 117.2 216.2 118.3 217 118.9 C 215.2 114.4 213.6 109.8 211.7 105.4 C 212.5 105.7 214 106.5 214.7 106.8 C 213.7 103 212.7 99.1 211.6 95.3 C 212.1 95.5 213.1 95.8 213.5 96 C 212.1 92.2 210.6 88.3 209 84.5 C 207.3 88.5 205.7 92.5 204 96.5 L 205.8 96 C 205 99.4 204.1 102.7 203.3 106.1 C 203.9 105.7 205.1 105 205.8 104.6 C 204.5 108.3 203.2 111.9 202 115.5 L 204.7 114.5 C 203.5 117.3 202.2 120.1 200.9 122.8 C 201.5 122.7 202.7 122.5 203.2 122.4 C 202.5 124.6 201.8 126.8 201 129.1 L 203.2 128.7 C 201.9 131 200.7 133.3 199.2 135.6 C 198.7 133.8 198.1 131.9 197.5 130.2 L 199.6 130 C 198.8 127.7 197.9 125.3 196.9 123 C 197.5 123 198.8 123.1 199.4 123.1 C 198.3 120.8 197.2 118.5 196.2 116.2 C 196.8 116.2 198 116.3 198.6 116.3 C 197 113.6 195.5 110.9 194 108.1 C 194.8 108.1 196.3 108.1 197.1 108.2 C 195.7 105.5 194.4 102.9 193.1 100.3 C 193.7 100.3 195 100.2 195.6 100.2 C 193.4 97.3 191.7 93.6 189 91.2 C 186.5 93.7 184.9 97.6 182.9 100.7 L 184.8 100.8 C 183.6 103.5 182.4 106.2 181.2 108.9 C 181.9 108.8 183.2 108.8 183.9 108.8 C 182.7 111.2 181.4 113.6 180.1 116 C 180.7 116 181.8 116 182.4 116 C 181.3 117.7 180.3 119.4 179.2 121.2 C 179.9 121.1 181.3 121.1 182 121.1 C 180.9 122.8 179.9 124.5 178.8 126.2 C 179.6 126.2 181.1 126.2 181.8 126.2 C 180.9 128.3 180 130.3 179 132.4 C 179.9 132.2 181.8 132 182.8 131.9 C 182.1 133.7 181.4 135.5 180.7 137.3 C 173.8 131.9 166.5 126.9 159.3 121.8 C 153.3 117.7 147.3 113.4 140.5 110.6 C 136.9 109.7 133.1 109.7 129.4 110.5 C 123.8 112.1 119.1 115.8 114.2 119 C 115.4 124.5 116.5 130.2 117.8 135.7 C 108.7 125.7 99.7 114.7 87.3 108.7 C 78.3 107.1 69.8 111.9 62.1 116 C 51.8 122.3 41.5 128.7 32 136.1 C 33 117.1 38 98.3 47.7 81.9 C 52.5 86.6 59.5 88.7 66.1 87.1 C 72 85.6 77.8 83.8 83.3 81.3 C 85.3 85.8 90.6 86.9 95 85.7 C 103.1 83.6 110.8 80.2 118.2 76.2 C 124 75 130.1 75.8 135.5 78.2 C 142.2 80.1 149 83 156.1 81.8 C 164.1 80.5 170.7 75.5 177.1 71.1 C 182.3 68.6 188.4 69.4 193.9 67.7 C 197.1 66.7 200.1 63 198.3 59.6 C 195.9 55.7 191 54.6 186.8 53.7 C 176.2 52.8 165.6 53.6 155 52.6 C 147.8 51.7 141.2 48.3 134.6 45.5 C 129.1 43.3 122.9 44.2 117.3 45.9 C 110.9 38.4 100.3 39.5 91.4 39.2 Z" class="style0"/><path d=" M 80.4 46.2 C 83.1 44 86.8 44.3 90.1 43.8 C 94.9 43.8 99.8 43.4 104.5 44.6 C 108.5 45.9 111.9 48.5 115.3 50.9 C 124.9 47.7 135.5 49.2 144.5 53.6 C 153.7 57.9 164.1 56.8 174 57 C 179.8 57 186.1 56.9 191.2 59.9 C 192.9 61.4 190.3 63.2 189.1 64.1 C 183.5 67.3 176.8 65.8 170.6 66.4 C 168.8 71.5 163.3 73.8 158.8 75.8 C 144.8 79.2 133.3 66.6 119.5 68.6 C 116 69.1 113.7 71.9 110.6 73.3 C 104.3 76.5 97.5 79.8 90.3 78.6 C 89.3 77.2 88.6 75.6 87.8 74.1 C 80.5 74.4 74.3 79.3 67 79.5 C 61.8 80.1 56.6 77.4 53.3 73.5 C 60.8 63 70 53.8 80.4 46.2 Z" class="style0"/><path d=" M 31.3 152.4 C 40.8 151.9 50.4 152 59.9 152 C 59.8 153.9 59.6 155.8 59.5 157.6 C 50.9 159.1 42.3 161.6 34.9 166.3 C 33.9 162.5 33.5 158.6 33 154.7 C 33.2 153.5 32.1 153 31.3 152.4 Z" class="style0"/><path d=" M 59.6 157.6 C 60.1 155.8 59.1 153.1 60.9 151.9 L 61.9 151.9 C 65.1 152 68.3 152 71.5 152 C 71.4 153.4 71.4 154.9 71.3 156.3 C 67.4 156.2 63.5 157 59.6 157.6 Z" class="style0"/><path d=" M 72.6 156 C 72.1 154.6 71.8 153.2 71.6 151.7 C 79.2 152.9 87 152.6 94.5 154.7 C 87.1 154.7 79.8 155 72.6 156 Z" class="style0"/><path d=" M 208.8 156.2 C 217.9 154.3 227.2 153 236.4 152.4 C 236.4 154.2 236.4 156 236.5 157.7 C 227.3 156.6 218.1 156.1 208.8 156.2 Z" class="style0"/><path d=" M 236.6 152.5 C 245.2 152.5 253.9 152.5 262.5 152.5 C 262 157.2 261.1 161.9 260.1 166.5 C 253.6 160.8 244.9 158.9 236.5 157.8 C 236.5 156.1 236.6 154.3 236.6 152.5 Z" class="style0"/><path d=" M 160.6 160.2 C 166.8 157.9 173.5 158 180 157.4 C 173.4 161.1 166.1 164.4 161.6 170.8 C 159.9 167.6 160.7 163.7 160.6 160.2 Z" class="style0"/><path d=" M 132.5 170.8 C 141.4 166.3 151 163.2 160.4 160.1 C 160.4 164 160.6 167.9 160.4 171.8 C 158.1 175.1 155.4 178.8 155.5 183 C 155.2 188.2 158.1 192.9 161.2 196.8 C 166.6 203 170.5 210.5 172.2 218.5 C 173.7 225.6 172.8 232.8 172.1 240 C 171.6 244.7 170.5 249.3 169.1 253.8 C 138.9 259.9 106.5 252.7 81.3 235.2 C 91.9 233.2 102.9 230.3 111.3 223.3 C 118.4 216.7 123.2 207.5 124.3 197.8 C 124.8 190.9 124.8 184 125.2 177.2 C 126.6 174.1 129.7 172.4 132.5 170.8 Z" class="style0"/></svg>